<svg id="Capa_1" data-name="Capa 1" xmlns="http://www.w3.org/2000/svg" viewBox="0 0 471.96 98.54"><defs><style>.cls-1{fill:#ffdb0c;}.cls-2{fill:#fbbf00;}.cls-3{fill:#f1f1f2;}.cls-4{fill:#e6e6e6;}.cls-5{isolation:isolate;}.cls-6{fill:#707070;}</style></defs><title>Sin título-2</title><g id="shield"><path id="Trazado_5" data-name="Trazado 5" class="cls-1" d="M59.74,108.94h0a68.82,68.82,0,0,0,44.71-64.45V27.09A16.69,16.69,0,0,1,87.76,10.4h-56A16.69,16.69,0,0,1,15,27.09h0v17.4A68.82,68.82,0,0,0,59.74,108.94Z" transform="translate(-15.04 -10.4)"/><path id="Trazado_6" data-name="Trazado 6" class="cls-2" d="M59.74,105.59h0A64.85,64.85,0,0,1,18.16,44.83V28.42A15.63,15.63,0,0,0,33.69,12.69H59.74S46.1,58.52,59.74,105.59Z" transform="translate(-15.04 -10.4)"/><path id="Trazado_7" data-name="Trazado 7" class="cls-3" d="M53.52,77,38.7,62.22l8.16-8.16,6.65,6.66L72.62,41.61l8.16,8.16Z" transform="translate(-15.04 -10.4)"/><path id="Trazado_8" data-name="Trazado 8" class="cls-4" d="M59.74,70.82V54.48L72.62,41.6l8.16,8.16Z" transform="translate(-15.04 -10.4)"/></g><g id="SafeCheck" class="cls-5"><g class="cls-5"><path class="cls-6" d="M169.16,72.42a14.93,14.93,0,0,1-2.76,9,16.37,16.37,0,0,1-7.74,5.71,34.06,34.06,0,0,1-12,1.87,39.13,39.13,0,0,1-14.87-2.74V72.06A29.26,29.26,0,0,0,139,75.9a21.05,21.05,0,0,0,7.33,1.46,7.18,7.18,0,0,0,4-.92,3,3,0,0,0,1.41-2.69,3.6,3.6,0,0,0-.71-2.21,6.86,6.86,0,0,0-2.13-1.79,40,40,0,0,0-5.28-2.27q-12.5-4.8-12.49-15.52a14.51,14.51,0,0,1,5.7-12q5.7-4.49,15.3-4.49,2.72,0,5,.21c1.52.15,2.89.33,4.13.55s3,.62,5.22,1.22V50.62a26.69,26.69,0,0,0-12.85-3.57,7.88,7.88,0,0,0-4.18,1,3,3,0,0,0-1.59,2.67,3.35,3.35,0,0,0,1.28,2.68,23.87,23.87,0,0,0,5.36,2.76q8,3.26,11.38,7.11A13.55,13.55,0,0,1,169.16,72.42Z" transform="translate(-15.04 -10.4)"/><path class="cls-6" d="M194.56,88.08V82.45h-.14A12.08,12.08,0,0,1,183.16,89q-5.24,0-8.19-3.1a11.55,11.55,0,0,1-3-8.3Q172,66.68,185.4,65l9.16-1.19a3.5,3.5,0,0,0-1.62-3,7.4,7.4,0,0,0-4.37-1.15,28.69,28.69,0,0,0-13.09,3.53v-10a34.4,34.4,0,0,1,7.5-2.13,43.07,43.07,0,0,1,7.72-.83q9.42,0,13.66,4t4.24,13.44V88.08Zm-9.09-12.56a3.4,3.4,0,0,0,1,2.49,3.62,3.62,0,0,0,2.72,1,4.84,4.84,0,0,0,3.92-1.81,7,7,0,0,0,1.49-4.62v-1.4l-5.19.72C186.77,72.31,185.47,73.53,185.47,75.52Z" transform="translate(-15.04 -10.4)"/><path class="cls-6" d="M244,44.56a13.65,13.65,0,0,0-4.44-.83,4.94,4.94,0,0,0-3.79,1.32,5,5,0,0,0-1.22,3.55v2.53h8.55V61.77h-8.55V88.08H219.17V61.77H213V51.13h6.2V47.74a15,15,0,0,1,2.1-8,13.94,13.94,0,0,1,6.08-5.36A22.35,22.35,0,0,1,237,32.51a26.26,26.26,0,0,1,7,.79Z" transform="translate(-15.04 -10.4)"/><path class="cls-6" d="M260.64,74a5.21,5.21,0,0,0,2.74,3.74,12.38,12.38,0,0,0,6.21,1.35A25.57,25.57,0,0,0,279.76,77v9.75A36.61,36.61,0,0,1,266.19,89q-9.66,0-15-4.94t-5.38-13.61a22.51,22.51,0,0,1,2.36-10.5,17,17,0,0,1,7-7.12,20.68,20.68,0,0,1,10.23-2.58,20.16,20.16,0,0,1,9.82,2.23,15,15,0,0,1,6.19,6.28,20.15,20.15,0,0,1,2.11,9.46V74Zm9.24-8q0-6.37-4.59-6.38a3.88,3.88,0,0,0-3.21,1.75,8.72,8.72,0,0,0-1.52,4.63Z" transform="translate(-15.04 -10.4)"/></g><g class="cls-5"><path class="cls-6" d="M327.58,85.92q-5.85,3-14.55,3-11.25,0-18-7.11t-6.78-18.66q0-12.41,7.63-20.06t19.29-7.65a31.63,31.63,0,0,1,12.45,2.13v8.51A22.22,22.22,0,0,0,316,43q-8.41,0-13.62,5.38t-5.22,14.36q0,8.55,4.87,13.62t12.81,5.07A23,23,0,0,0,327.58,78Z" transform="translate(-15.04 -10.4)"/><path class="cls-6" d="M369.29,88.08h-8.37V67.87q0-11-7.33-11a7.65,7.65,0,0,0-6.2,3.18,12.61,12.61,0,0,0-2.53,8.12V88.08h-8.41V33.38h8.41V57.26H345q4.19-7,12-7,12.31,0,12.31,15.05Z" transform="translate(-15.04 -10.4)"/><path class="cls-6" d="M410.75,71.88H385.56c.1,3.41,1.15,6.05,3.16,7.9s4.77,2.78,8.28,2.78A18.22,18.22,0,0,0,407.86,79v6.75q-5,3.18-13.35,3.18-8.14,0-12.79-5t-4.64-14.16q0-8.62,5.11-14.06a16.69,16.69,0,0,1,12.68-5.43c5.06,0,9,1.63,11.73,4.87s4.15,7.76,4.15,13.54ZM402.67,66a10.85,10.85,0,0,0-2.13-7,7.13,7.13,0,0,0-5.77-2.51,8.11,8.11,0,0,0-6.12,2.64A12.05,12.05,0,0,0,385.56,66Z" transform="translate(-15.04 -10.4)"/><path class="cls-6" d="M445.18,86.38A20.63,20.63,0,0,1,434.68,89q-8.24,0-13.28-5.15t-5.06-13.33q0-9.14,5.44-14.67t14.52-5.54A21.15,21.15,0,0,1,445.21,52v7.8A13.44,13.44,0,0,0,437,56.94a11.45,11.45,0,0,0-8.7,3.59,13.13,13.13,0,0,0-3.39,9.4q0,5.73,3.19,9.06a11.36,11.36,0,0,0,8.57,3.32,13.36,13.36,0,0,0,8.52-3.22Z" transform="translate(-15.04 -10.4)"/><path class="cls-6" d="M487,88.08H476.39L462,70.33h-.15V88.08h-8.4V33.38h8.4V68.05H462L475.6,51.13h10.06L470.4,69Z" transform="translate(-15.04 -10.4)"/></g></g></svg>